<?xml version="1.0" standalone="no"?>
<!DOCTYPE svg PUBLIC "-//W3C//DTD SVG 20010904//EN"
 "http://www.w3.org/TR/2001/REC-SVG-20010904/DTD/svg10.dtd">
<svg version="1.0" xmlns="http://www.w3.org/2000/svg"
 width="270.000000pt" height="270.000000pt" viewBox="0 0 270.000000 270.000000"
 preserveAspectRatio="xMidYMid meet">
<metadata>
Created by potrace 1.14, written by Peter Selinger 2001-2017
</metadata>
<g transform="translate(0.000000,270.000000) scale(0.100000,-0.100000)"
fill="#000000" stroke="none">
<path d="M930 2363 c-87 -8 -194 -28 -258 -49 -136 -45 -255 -119 -365 -227
-158 -156 -255 -356 -283 -582 -7 -57 -8 -231 -1 -285 14 -107 44 -218 84
-309 25 -55 95 -168 129 -208 11 -12 26 -30 35 -40 30 -35 137 -133 145 -133
4 0 17 -9 28 -19 30 -28 169 -96 246 -120 171 -55 397 -60 580 -12 81 21 223
84 250 111 3 3 21 17 40 31 108 81 224 229 279 356 17 39 31 75 31 80 0 7 -73
36 -329 129 -36 13 -65 23 -66 21 -1 -1 -9 -22 -19 -46 -46 -118 -159 -233
-267 -270 -148 -52 -306 -41 -439 30 -191 102 -290 306 -277 568 6 119 10 147
34 211 80 222 281 356 516 345 68 -4 161 -26 208 -51 40 -20 145 -124 153
-152 4 -12 11 -22 16 -22 4 0 18 -29 30 -64 22 -61 24 -63 49 -55 26 8 214 75
241 86 8 4 17 7 20 8 3 1 14 5 25 9 11 5 36 14 55 21 42 16 42 28 -3 130 -96
218 -306 408 -513 464 -21 6 -41 11 -44 12 -42 11 -151 26 -210 28 -41 1 -77
3 -80 4 -3 2 -21 1 -40 0z"/>
<path d="M2281 1009 c-81 -15 -159 -76 -215 -166 -14 -24 -24 -43 -22 -43 2 0
-2 -19 -8 -42 -26 -88 0 -206 62 -279 45 -53 56 -62 107 -88 64 -31 96 -38
167 -35 124 6 234 80 287 193 37 81 36 195 -2 274 -70 141 -219 215 -376 186z"/>
</g>
</svg>
